# xmcd CD database file
#
# Track frame offsets:
#	150
#	30704
#	70430
#	101615
#	136745
#	175640
#	204509
#
# Disc length: 3089 seconds
#
# Revision: 0
# Processed by: cddbd v1.5.2PL0 Copyright (c) Steve Scherf et al.
# Submitted via: CDex 1.51
#
DISCID=5a0c0f07
DTITLE=Christoph Dangelmaier - Time Remembered
DYEAR=2004
DGENRE=Jazz
TTITLE0=Prism
TTITLE1=Beneath It All
TTITLE2=Solar
TTITLE3=Time Remembered
TTITLE4=Natural Selection
TTITLE5=I Love You
TTITLE6='long As You Know You're Living Yours
EXTD=YEAR: 2004
EXTT0=
EXTT1=
EXTT2=
EXTT3=
EXTT4=
EXTT5=
EXTT6=
PLAYORDER=
